<?xml version="1.0" encoding="UTF-8"?>
<svg id="Layer_2" data-name="Layer 2" xmlns="http://www.w3.org/2000/svg" xmlns:xlink="http://www.w3.org/1999/xlink" viewBox="0 0 128.36 60.52">
  <defs>
    <style>
      .cls-1 {
        fill: #4ad3b9;
      }

      .cls-2 {
        letter-spacing: 0em;
      }

      .cls-3 {
        fill: #fdfefe;
        font-family: Montserrat-Black, Montserrat;
        font-size: 11.58px;
        font-weight: 800;
      }

      .cls-4 {
        letter-spacing: -.03em;
      }
    </style>
    <symbol id="New_Symbol_1" data-name="New Symbol 1" viewBox="0 0 105.78 12.97">
      <text class="cls-3" transform="translate(0 9.84)"><tspan x="0" y="0">Design a</tspan><tspan class="cls-2" x="54.69" y="0">n</tspan><tspan x="62.93" y="0">d C</tspan><tspan class="cls-4" x="83.19" y="0">r</tspan><tspan x="88.12" y="0">aft</tspan></text>
    </symbol>
  </defs>
  <g id="Main">
    <g>
      <use width="105.78" height="12.97" transform="translate(0 44.78) scale(1.21)" xlink:href="#New_Symbol_1"/>
      <g>
        <g>
          <path class="cls-1" d="M103.84,4.42v19.4c0,5.28-1.36,9.23-4.06,11.88-4.73,4.62-12.99,3.94-13.52,3.89-15.2-1.41-25.58-31.05-41.12-28.51l-9.45-8.43c3.12-1.52,6.59-2.26,10.42-2.26,2.22,0,4.3.23,6.22.69,7.64,1.83,22.71,18.24,27.82,24.68,1.03,1.3,2.48,2.09,3.47,2.71.99.63,2.03.95,3.11.95,1.36,0,2.4-.41,3.13-1.21.72-.81,1.08-2.01,1.08-3.6v-8.68l12.9-11.5Z"/>
          <path class="cls-1" d="M77.76,0l.24,9.93,6.94-.04L96.03,0h-18.27Z"/>
        </g>
        <g>
          <g>
            <path class="cls-1" d="M52.14,28.72c-1.64,1.08-3.42,1.63-5.36,1.63-2.73,0-4.93-.87-6.59-2.63-1.66-1.75-2.5-4.1-2.5-7.06,0-1.57.24-2.97.72-4.2l-9.54-8.52c-.56.69-1.08,1.43-1.55,2.22-1.87,3.08-2.8,6.59-2.8,10.5s.93,7.41,2.8,10.5c1.86,3.08,4.43,5.48,7.72,7.21,3.29,1.71,6.98,2.57,11.08,2.57,3.77,0,7.12-.67,10.08-2,1.6-.72,3.06-1.61,4.36-2.69l-8.41-7.51Z"/>
            <path class="cls-1" d="M103.84,4.42v19.4c0,5.28-1.36,9.23-4.06,11.88-4.73,4.62-12.99,3.94-13.52,3.89-15.2-1.41-25.58-31.05-41.12-28.51l-9.45-8.43c3.12-1.52,6.59-2.26,10.42-2.26,2.22,0,4.3.23,6.22.69,7.64,1.83,22.71,18.24,27.82,24.68,1.03,1.3,2.48,2.09,3.47,2.71.99.63,2.03.95,3.11.95,1.36,0,2.4-.41,3.13-1.21.72-.81,1.08-2.01,1.08-3.6v-8.68l12.9-11.5Z"/>
          </g>
          <path class="cls-1" d="M77.76,0l.24,9.93,6.94-.04L96.03,0h-18.27Z"/>
        </g>
      </g>
    </g>
  </g>
</svg>