<?xml version="1.0" encoding="UTF-8"?>
<svg id="Layer_2" data-name="Layer 2" xmlns="http://www.w3.org/2000/svg" viewBox="0 0 127.46 59.59">
  <defs>
    <style>
      .cls-1 {
        fill: #4ad3b9;
      }

      .cls-2 {
        fill: #fdfefe;
      }
    </style>
  </defs>
  <g id="Main">
    <g>
      <g>
        <path class="cls-2" d="M0,46.89h4.85c1.1,0,2.06.2,2.9.6.84.4,1.49.97,1.95,1.71.46.74.7,1.61.7,2.61s-.23,1.87-.7,2.61c-.46.74-1.11,1.31-1.95,1.71-.84.4-1.81.6-2.9.6H0v-9.84ZM4.71,54.14c.71,0,1.28-.2,1.71-.61.43-.41.64-.98.64-1.72s-.21-1.31-.64-1.72c-.43-.41-1-.61-1.71-.61h-1.39v4.67h1.39Z"/>
        <path class="cls-2" d="M19.65,53.62h-5.34c.11.29.3.51.56.67.26.15.59.23.98.23.34,0,.62-.04.85-.13.23-.08.48-.23.75-.44l1.66,1.67c-.75.82-1.87,1.24-3.36,1.24-.93,0-1.74-.17-2.45-.51-.7-.34-1.25-.82-1.63-1.43-.38-.61-.58-1.29-.58-2.05s.19-1.45.57-2.06c.38-.6.9-1.08,1.56-1.41.66-.34,1.4-.51,2.23-.51.78,0,1.49.15,2.13.46.64.31,1.15.76,1.53,1.36s.57,1.32.57,2.15c0,.05-.01.3-.04.75ZM14.67,51.33c-.22.18-.36.43-.42.76h2.47c-.07-.32-.21-.57-.42-.75s-.49-.27-.81-.27-.6.09-.81.27Z"/>
        <path class="cls-2" d="M21.75,56.66c-.64-.14-1.15-.32-1.55-.55l.87-2.09c.36.22.78.38,1.26.51.49.12.96.18,1.42.18.37,0,.62-.03.77-.09.15-.06.22-.15.22-.27s-.09-.21-.27-.25c-.18-.05-.48-.09-.89-.14-.63-.07-1.16-.17-1.6-.29-.44-.12-.83-.34-1.16-.68-.33-.34-.5-.82-.5-1.45,0-.5.15-.94.45-1.33.3-.39.75-.71,1.34-.94s1.31-.35,2.14-.35c.58,0,1.15.05,1.71.16.56.11,1.03.27,1.43.47l-.87,2.09c-.67-.37-1.42-.56-2.22-.56-.69,0-1.04.12-1.04.37,0,.12.09.21.28.26.19.05.48.1.89.15.63.08,1.16.17,1.59.3s.82.35,1.15.69.5.82.5,1.45c0,.48-.15.91-.45,1.31s-.75.71-1.35.94c-.6.23-1.33.35-2.18.35-.66,0-1.3-.07-1.94-.21Z"/>
        <path class="cls-2" d="M28.83,47.97c-.35-.3-.53-.69-.53-1.16s.18-.85.53-1.16c.35-.3.81-.46,1.38-.46s1.04.15,1.39.44c.35.29.52.67.52,1.12,0,.49-.17.89-.52,1.2s-.81.47-1.39.47-1.03-.15-1.38-.46ZM28.63,49.04h3.18v7.69h-3.18v-7.69Z"/>
        <path class="cls-2" d="M41.79,49.04v6.16c0,1.46-.41,2.56-1.22,3.3-.81.74-1.96,1.1-3.46,1.1-.77,0-1.48-.08-2.15-.25-.67-.16-1.23-.4-1.7-.71l1.07-2.16c.3.22.68.41,1.14.55.46.14.9.21,1.32.21.64,0,1.1-.14,1.39-.41.29-.27.44-.67.44-1.19v-.14c-.48.54-1.19.82-2.12.82-.66,0-1.27-.15-1.83-.46-.57-.3-1.02-.74-1.36-1.31-.34-.57-.51-1.22-.51-1.95s.17-1.38.51-1.94c.34-.56.79-1,1.36-1.3.57-.3,1.18-.46,1.83-.46,1.05,0,1.81.34,2.28,1.01v-.87h3.02ZM38.27,53.49c.25-.23.37-.53.37-.89s-.12-.66-.37-.89c-.25-.22-.56-.34-.93-.34s-.7.11-.95.34c-.25.23-.37.52-.37.89s.13.66.38.89c.25.23.57.34.94.34s.69-.11.93-.34Z"/>
        <path class="cls-2" d="M50.82,49.76c.58.57.86,1.43.86,2.59v4.38h-3.18v-3.84c0-.88-.31-1.32-.94-1.32-.36,0-.64.12-.86.37-.22.25-.33.64-.33,1.17v3.61h-3.18v-7.69h3.02v.76c.3-.3.65-.52,1.04-.67.39-.15.82-.23,1.28-.23.95,0,1.71.29,2.28.86Z"/>
        <path class="cls-2" d="M63.81,49.81c.71.6,1.07,1.53,1.07,2.79v4.13h-2.95v-1.01c-.37.77-1.09,1.15-2.18,1.15-.61,0-1.13-.11-1.55-.32-.43-.21-.75-.5-.97-.86-.22-.36-.33-.77-.33-1.22,0-.76.29-1.33.87-1.73s1.46-.59,2.64-.59h1.28c-.1-.6-.59-.9-1.45-.9-.35,0-.7.05-1.05.16-.36.11-.66.26-.91.44l-1.01-2.09c.44-.27.97-.48,1.6-.64.62-.15,1.24-.23,1.86-.23,1.35,0,2.38.3,3.09.91ZM61.31,54.77c.18-.12.31-.3.39-.55v-.53h-.79c-.65,0-.97.22-.97.65,0,.18.07.33.2.44.14.12.32.18.55.18s.43-.06.6-.18Z"/>
        <path class="cls-2" d="M73.88,49.76c.58.57.87,1.43.87,2.59v4.38h-3.18v-3.84c0-.88-.31-1.32-.94-1.32-.36,0-.64.12-.87.37-.22.25-.33.64-.33,1.17v3.61h-3.18v-7.69h3.02v.76c.3-.3.65-.52,1.04-.67.39-.15.82-.23,1.28-.23.95,0,1.71.29,2.28.86Z"/>
        <path class="cls-2" d="M84.77,46.3v10.43h-3.02v-.63c-.46.52-1.16.77-2.11.77-.67,0-1.29-.16-1.86-.48-.57-.32-1.02-.79-1.35-1.4-.33-.61-.5-1.31-.5-2.11s.17-1.5.5-2.1c.33-.6.78-1.07,1.35-1.39.57-.32,1.19-.48,1.86-.48.85,0,1.5.22,1.95.66v-3.26h3.18ZM81.29,53.99c.23-.27.35-.64.35-1.12s-.12-.85-.35-1.11-.53-.39-.9-.39-.67.13-.9.39-.35.63-.35,1.11.12.85.35,1.12.53.4.9.4.67-.13.9-.4Z"/>
        <path class="cls-2" d="M92.76,56.3c-.83-.44-1.49-1.04-1.96-1.83-.47-.78-.71-1.67-.71-2.66s.24-1.88.71-2.66c.47-.78,1.13-1.39,1.96-1.83.83-.44,1.77-.65,2.81-.65.96,0,1.81.17,2.56.51.75.34,1.37.82,1.86,1.46l-2.09,1.87c-.61-.77-1.33-1.15-2.15-1.15-.69,0-1.25.22-1.67.67-.42.45-.63,1.04-.63,1.79s.21,1.35.63,1.79c.42.45.98.67,1.67.67.82,0,1.54-.38,2.15-1.15l2.09,1.87c-.49.64-1.11,1.12-1.86,1.46-.75.34-1.6.51-2.56.51-1.04,0-1.98-.22-2.81-.65Z"/>
        <path class="cls-2" d="M106.35,48.9v2.81c-.25-.04-.49-.06-.7-.06-1.09,0-1.63.55-1.63,1.66v3.42h-3.18v-7.69h3.02v.83c.56-.65,1.39-.97,2.49-.97Z"/>
        <path class="cls-2" d="M113.36,49.81c.71.6,1.07,1.53,1.07,2.79v4.13h-2.95v-1.01c-.37.77-1.09,1.15-2.18,1.15-.61,0-1.13-.11-1.55-.32-.43-.21-.75-.5-.97-.86-.22-.36-.33-.77-.33-1.22,0-.76.29-1.33.87-1.73s1.46-.59,2.64-.59h1.28c-.1-.6-.59-.9-1.45-.9-.35,0-.7.05-1.05.16-.36.11-.66.26-.91.44l-1.01-2.09c.44-.27.97-.48,1.59-.64.62-.15,1.24-.23,1.86-.23,1.35,0,2.38.3,3.09.91ZM110.86,54.77c.18-.12.31-.3.39-.55v-.53h-.79c-.65,0-.97.22-.97.65,0,.18.07.33.2.44s.32.18.56.18.43-.06.6-.18Z"/>
        <path class="cls-2" d="M119.24,49.46h1.67v2.32h-1.57v4.95h-3.18v-4.95h-1.05v-2.32h1.05v-.04c0-1,.3-1.8.9-2.38s1.44-.88,2.53-.88c.36,0,.7.03,1.04.1.34.07.62.16.84.28l-.76,2.21c-.26-.12-.5-.18-.72-.18-.23,0-.42.07-.56.22-.14.15-.2.37-.2.67h0Z"/>
        <path class="cls-2" d="M127.46,56.46c-.48.27-1.13.41-1.95.41-1.08,0-1.91-.26-2.49-.78-.58-.52-.87-1.3-.87-2.34v-1.97h-1.05v-2.32h1.05v-2.15h3.18v2.15h1.57v2.32h-1.57v1.94c0,.23.06.42.18.55.12.13.28.2.48.2.27,0,.51-.07.72-.21l.76,2.21Z"/>
      </g>
      <g>
        <g>
          <path class="cls-1" d="M103.04,4.42v19.4c0,5.28-1.36,9.23-4.06,11.88-4.73,4.62-12.99,3.94-13.52,3.89-15.2-1.41-25.58-31.05-41.12-28.51l-9.45-8.43c3.12-1.52,6.59-2.26,10.42-2.26,2.22,0,4.3.23,6.22.69,7.64,1.83,22.71,18.24,27.82,24.68,1.03,1.3,2.48,2.09,3.47,2.71.99.63,2.03.95,3.11.95,1.36,0,2.4-.41,3.13-1.21.72-.81,1.08-2.01,1.08-3.6v-8.68l12.9-11.5Z"/>
          <path class="cls-1" d="M76.96,0l.24,9.93,6.94-.04L95.23,0h-18.27Z"/>
        </g>
        <g>
          <g>
            <path class="cls-1" d="M51.34,28.72c-1.64,1.08-3.42,1.63-5.36,1.63-2.73,0-4.93-.87-6.59-2.63-1.66-1.75-2.5-4.1-2.5-7.06,0-1.57.24-2.97.72-4.2l-9.54-8.52c-.56.69-1.08,1.43-1.55,2.22-1.87,3.08-2.8,6.59-2.8,10.5s.93,7.41,2.8,10.5c1.86,3.08,4.43,5.48,7.72,7.21,3.29,1.71,6.98,2.57,11.08,2.57,3.77,0,7.12-.67,10.08-2,1.6-.72,3.06-1.61,4.36-2.69l-8.41-7.51Z"/>
            <path class="cls-1" d="M103.04,4.42v19.4c0,5.28-1.36,9.23-4.06,11.88-4.73,4.62-12.99,3.94-13.52,3.89-15.2-1.41-25.58-31.05-41.12-28.51l-9.45-8.43c3.12-1.52,6.59-2.26,10.42-2.26,2.22,0,4.3.23,6.22.69,7.64,1.83,22.71,18.24,27.82,24.68,1.03,1.3,2.48,2.09,3.47,2.71.99.63,2.03.95,3.11.95,1.36,0,2.4-.41,3.13-1.21.72-.81,1.08-2.01,1.08-3.6v-8.68l12.9-11.5Z"/>
          </g>
          <path class="cls-1" d="M76.96,0l.24,9.93,6.94-.04L95.23,0h-18.27Z"/>
        </g>
      </g>
    </g>
  </g>
</svg>