<?xml version="1.0" encoding="UTF-8"?>
<svg id="Layer_2" data-name="Layer 2" xmlns="http://www.w3.org/2000/svg" xmlns:xlink="http://www.w3.org/1999/xlink" viewBox="0 0 90.34 46.61">
  <defs>
    <style>
      .cls-1 {
        fill: #4ad3b9;
      }
    </style>
    <symbol id="New_Symbol" data-name="New Symbol" viewBox="0 0 65.38 33.73">
      <g>
        <g>
          <path class="cls-1" d="M65.38,3.64v15.99c0,4.35-1.12,7.61-3.35,9.79-3.9,3.81-10.7,3.25-11.14,3.21-12.53-1.16-21.08-25.59-33.89-23.5l-7.79-6.95C11.78.93,14.64.32,17.8.32c1.83,0,3.54.19,5.13.57,6.3,1.51,18.72,15.03,22.93,20.34.85,1.07,2.04,1.72,2.86,2.23.82.52,1.67.78,2.56.78,1.12,0,1.98-.34,2.58-1,.59-.67.89-1.66.89-2.97v-7.15l10.63-9.48Z"/>
          <path class="cls-1" d="M43.88,0l.2,8.18,5.72-.03L58.94,0h-15.06Z"/>
        </g>
        <g>
          <g>
            <path class="cls-1" d="M22.77,23.67c-1.35.89-2.82,1.34-4.42,1.34-2.25,0-4.06-.72-5.43-2.17-1.37-1.44-2.06-3.38-2.06-5.82,0-1.29.2-2.45.59-3.46L3.59,6.54c-.46.57-.89,1.18-1.28,1.83C.77,10.91,0,13.8,0,17.02s.77,6.11,2.31,8.65c1.53,2.54,3.65,4.52,6.36,5.94,2.71,1.41,5.75,2.12,9.13,2.12,3.11,0,5.87-.55,8.31-1.65,1.32-.59,2.52-1.33,3.59-2.22l-6.93-6.19Z"/>
            <path class="cls-1" d="M65.38,3.64v15.99c0,4.35-1.12,7.61-3.35,9.79-3.9,3.81-10.7,3.25-11.14,3.21-12.53-1.16-21.08-25.59-33.89-23.5l-7.79-6.95C11.78.93,14.64.32,17.8.32c1.83,0,3.54.19,5.13.57,6.3,1.51,18.72,15.03,22.93,20.34.85,1.07,2.04,1.72,2.86,2.23.82.52,1.67.78,2.56.78,1.12,0,1.98-.34,2.58-1,.59-.67.89-1.66.89-2.97v-7.15l10.63-9.48Z"/>
          </g>
          <path class="cls-1" d="M43.88,0l.2,8.18,5.72-.03L58.94,0h-15.06Z"/>
        </g>
      </g>
    </symbol>
  </defs>
  <g id="Logo">
    <use width="65.38" height="33.73" transform="scale(1.38)" xlink:href="#New_Symbol"/>
  </g>
</svg>