<?xml version="1.0" encoding="UTF-8"?>
<svg id="Layer_2" data-name="Layer 2" xmlns="http://www.w3.org/2000/svg" viewBox="0 0 73.06 72">
  <defs>
    <style>
      .cls-1 {
        fill: #4ad3b9;
      }

      .cls-2 {
        fill: #2c3e50;
      }
    </style>
  </defs>
  <g id="Circular">
    <path class="cls-2" d="M72,36c0,3.54-.51,6.95-1.47,10.18-4.38,14.93-18.19,25.82-34.53,25.82C16.11,72,0,55.89,0,36S16.11,0,36,0c16.47,0,30.37,11.07,34.64,26.18.89,3.12,1.36,6.41,1.36,9.82Z"/>
    <g>
      <path class="cls-1" d="M72,36c0,3.54,1.3,6.95.34,10.18-11.04-12.25-23.48-26.48-36.76-24.33l-13.52-12.06c4.46-2.17,9.43-3.23,14.91-3.23,3.18,0,6.15.33,8.91.99,6.31,1.51,18.32,9.97,26.92,18.63.89,3.12-.8,6.41-.8,9.82Z"/>
      <g>
        <path class="cls-1" d="M45.6,47.1c-2.34,1.55-4.9,2.33-7.67,2.33-3.91,0-7.05-1.25-9.43-3.77-2.38-2.5-3.58-5.87-3.58-10.1,0-2.24.35-4.26,1.03-6.01l-13.65-12.19c-.8.99-1.55,2.05-2.22,3.18-2.68,4.41-4.01,9.43-4.01,15.02s1.33,10.61,4.01,15.02c2.65,4.41,6.33,7.84,11.04,10.31,4.7,2.45,9.98,3.68,15.85,3.68,5.4,0,10.19-.96,14.43-2.87,2.29-1.02,4.37-2.3,6.23-3.85l-12.03-10.75Z"/>
        <path class="cls-1" d="M72,36c0,3.54,1.3,6.95.34,10.18-11.04-12.25-23.48-26.48-36.76-24.33l-13.52-12.06c4.46-2.17,9.43-3.23,14.91-3.23,3.18,0,6.15.33,8.91.99,6.31,1.51,18.32,9.97,26.92,18.63.89,3.12-.8,6.41-.8,9.82Z"/>
      </g>
    </g>
  </g>
</svg>