<?xml version="1.0" encoding="UTF-8"?>
<svg id="Layer_2" data-name="Layer 2" xmlns="http://www.w3.org/2000/svg" xmlns:xlink="http://www.w3.org/1999/xlink" viewBox="0 0 2620.17 2554.98">
  <defs>
    <style>
      .cls-1 {
        fill: #4ad3b9;
      }

      .cls-2 {
        fill: #2a3e4f;
      }

      .cls-3 {
        fill: #f6d050;
      }

      .cls-4 {
        fill: url(#linear-gradient);
      }
    </style>
    <linearGradient id="linear-gradient" x1="1279.98" y1="1229.49" x2="1279.98" y2="578.18" gradientUnits="userSpaceOnUse">
      <stop offset="0" stop-color="#2a3e4f"/>
      <stop offset="1" stop-color="#2a3e4f" stop-opacity="0"/>
    </linearGradient>
  </defs>
  <g id="Backgrpind">
    <g>
      <rect class="cls-2" width="2620.17" height="2554.98"/>
      <path class="cls-3" d="M612.46,1394.09c451.44-9.61,903.07-9.69,1354.51,0-451.44,9.69-903.07,9.62-1354.51,0h0Z"/>
      <g>
        <rect class="cls-1" x="277.35" y="494.09" width="219.61" height="219.61"/>
        <rect class="cls-1" x="362.31" y="774.58" width="219.61" height="219.61" transform="translate(674.79 -97.42) rotate(39.76)"/>
        <rect class="cls-1" x="385.63" y="1061.37" width="150.52" height="150.52" transform="translate(1513.22 506.6) rotate(81.16)"/>
        <rect class="cls-1" x="2002" y="553.48" width="150.52" height="150.52" transform="translate(2886.27 -1385.17) rotate(95.05)"/>
        <rect class="cls-1" x="2047.1" y="1069.83" width="150.52" height="150.52" transform="translate(2927.82 -1127.98) rotate(81.16)"/>
        <rect class="cls-1" x="1945.89" y="774.15" width="181.09" height="181.09" transform="translate(3378.65 -894.06) rotate(104.34)"/>
        <rect class="cls-4" x="286.63" y="526.15" width="1986.69" height="716.46"/>
      </g>
    </g>
  </g>
</svg>